:SAMPLES-PER-SECOND 30
:FULLY-SPECIFIED
:DEGREES
654
root  42.768 37.2199 6.45254 -1.97632 -31.1294 3.56812
RightUpLeg  -26.6067 -2.93445 -11.0482
RightLeg  27.8636 11.4252 6.26251
RightFoot  -2.38147 -0.343867 4.17727
RightToes  5.82063e-011 0 -3.6325e-017
Spine  25.8742 -1.20713 1.9806
Spine1  3.93266 -1.63749 3.76928
HEad  -38.0541 -4.24944 -5.63974
LeftShoulder1  1.69405 -2.57836 -21.4839
LeftArm  -14.553 -38.0735 -48.4409
LeftForeArm  4.40706 -63.6672 -23.2879
LeftHand  -0.0341463 5.51255 -2.16478
RightShoulder  0.514387 -1.20578 15.8029
RightArm  -29.8019 26.6185 16.1376
RightForeArm  -10.5427 71.1544 38.9314
RightHand  -0.279352 2.24339 -4.39598
LeftUpLeg  -16.2578 -20.3358 10.1892
LeftLeg  38.7113 -10.1104 -8.21611
LeftFoot  -13.9016 -0.00457496 -3.19014
LeftToes  1.68253e-010 -3.2327e-011 -2.69673e-012
655
root  41.492 37.6138 5.72101 -1.14636 -25.6317 4.25723
RightUpLeg  -25.7264 -6.35454 -9.93838
RightLeg  26.6056 9.42732 4.87679
RightFoot  -2.32612 -0.228657 2.69533
RightToes  5.82063e-011 0 -3.6325e-017
Spine  25.9742 -1.38312 1.62585
Spine1  3.64573 -1.92643 3.63527
HEad  -38.7755 -4.48553 -5.95081
LeftShoulder1  1.75917 -2.77911 -21.643
LeftArm  -14.2428 -38.0316 -48.1369
LeftForeArm  4.24493 -63.7484 -23.4025
LeftHand  -0.051801 6.35503 -1.59991
RightShoulder  0.535531 -1.12215 15.9069
RightArm  -29.7284 26.0733 15.7322
RightForeArm  -10.7243 71.6465 40.4299
RightHand  -0.376611 3.62432 -5.11648
LeftUpLeg  -18.1592 -15.5752 9.1061
LeftLeg  38.7074 -3.25737 -2.41955
LeftFoot  -11.6638 0.080921 0.405616
LeftToes  1.68253e-010 -3.2327e-011 -2.69673e-012
656
root  40.2054 37.9441 5.05986 -0.468262 -20.0077 4.71725
RightUpLeg  -24.6847 -9.68523 -8.66242
RightLeg  25.3448 7.29735 3.52766
RightFoot  -2.43237 -0.11429 1.25427
RightToes  5.82063e-011 0 -3.6325e-017
Spine  25.7231 -1.51619 1.29346
Spine1  3.97239 -2.24519 3.86491
HEad  -39.1931 -4.40365 -6.57196
LeftShoulder1  1.73357 -2.69816 -21.593
LeftArm  -13.6391 -38.1056 -48.3465
LeftForeArm  4.22102 -63.8354 -23.5091
LeftHand  -0.0472105 6.08327 -1.37727
RightShoulder  0.469377 -1.44033 16.2595
RightArm  -29.8522 26.2655 14.9827
RightForeArm  -10.143 71.6561 40.3941
RightHand  -0.260494 3.71178 -3.59028
LeftUpLeg  -19.2286 -10.6723 7.20367
LeftLeg  39.5761 0.563141 0.873634
LeftFoot  -12.5101 0.0854098 1.05217
LeftToes  1.68253e-010 -3.2327e-011 -2.69673e-012
657
root  38.938 38.1838 4.47583 0.209229 -14.4748 4.66443
RightUpLeg  -23.7317 -13.1727 -6.88652
RightLeg  24.1881 5.29937 2.36791
RightFoot  -2.53512 0.00806488 -0.327474
RightToes  5.82063e-011 0 -3.6325e-017
Spine  25.5622 -1.67982 1.93937
Spine1  3.82864 -2.23537 3.54341
HEad  -38.467 -3.197 -6.84045
LeftShoulder1  1.76157 -2.89844 -21.1263
LeftArm  -12.8701 -37.7598 -48.8038
LeftForeArm  4.26898 -63.9118 -23.595
LeftHand  -0.0442181 5.90347 -1.34393
RightShoulder  0.400032 -1.80142 17.1056
RightArm  -29.7041 25.8126 13.9158
RightForeArm  -10.6062 71.8764 41.1545
RightHand  -0.349411 3.29035 -4.81794
LeftUpLeg  -19.6222 -5.74827 5.12325
LeftLeg  40.8532 1.64113 1.89658
LeftFoot  -12.2833 0.0702553 -0.435
LeftToes  1.68253e-010 -3.2327e-011 -2.69673e-012
658
root  37.6618 38.378 3.96437 0.710449 -9.0881 4.42126
RightUpLeg  -22.6887 -16.8423 -4.89989
RightLeg  22.794 3.60756 1.47703
RightFoot  -2.7733 0.105837 -1.66754
RightToes  5.82063e-011 0 -3.6325e-017
Spine  25.336 -1.63559 2.05391
Spine1  3.79995 -2.27703 4.01056
HEad  -38.0455 -3.54829 -7.59659
LeftShoulder1  1.77934 -2.94354 -21.2257
LeftArm  -12.3589 -37.6364 -48.9197
LeftForeArm  4.28361 -63.8633 -23.5359
LeftHand  -0.0420015 5.77535 -1.45965
RightShoulder  0.40313 -1.78458 17.0696
RightArm  -29.532 24.8704 13.8075
RightForeArm  -10.6429 72.3481 42.7579
RightHand  -0.568296 3.62064 -7.53799
LeftUpLeg  -19.3653 -0.605513 3.07367
LeftLeg  42.5157 1.65073 2.01149
LeftFoot  -11.9675 0.0658069 -1.07279
LeftToes  1.68253e-010 -3.2327e-011 -2.69673e-012
659
root  36.3464 38.5065 3.52643 1.2804 -3.55292 4.26483
RightUpLeg  -22.1059 -20.3148 -3.10749
RightLeg  21.7775 1.59503 0.919949
RightFoot  -3.26397 0.185536 -2.93758
RightToes  5.82063e-011 0 -3.6325e-017
Spine  24.672 -1.46752 1.82812
Spine1  4.25731 -2.3712 4.87005
HEad  -37.8456 -3.58252 -8.3551
LeftShoulder1  1.72784 -2.62867 -21.8276
LeftArm  -11.4106 -37.7935 -48.4907
LeftForeArm  4.43022 -64.2663 -24.0093
LeftHand  -0.0387077 5.61541 -1.78477
RightShoulder  0.405419 -1.74117 16.56
RightArm  -29.5426 23.4914 14.182
RightForeArm  -7.01952 72.9377 44.4793
RightHand  -0.34428 3.14592 -4.93773
LeftUpLeg  -18.818 3.83939 1.0372
LeftLeg  44.5529 2.59648 3.15172
LeftFoot  -11.7805 0.0652528 -1.44138
LeftToes  1.68253e-010 -3.2327e-011 -2.69673e-012
660
root  35.0395 38.5788 3.14209 1.60474 2.27283 4.12054
RightUpLeg  -21.4511 -22.1003 -1.83593
RightLeg  20.9638 -2.58679 0.0413097
RightFoot  -3.73163 0.24998 -4.13564
RightToes  5.82063e-011 0 -3.6325e-017
Spine  24.0561 -1.50823 1.68094
Spine1  4.77641 -2.57081 5.30773
HEad  -37.6057 -2.49408 -8.44651
LeftShoulder1  1.72768 -2.72111 -21.387
LeftArm  -11.3253 -37.8627 -48.4591
LeftForeArm  4.65341 -64.5212 -24.3028
LeftHand  -0.039758 5.63568 -1.45516
RightShoulder  0.418255 -1.71653 17.0075
RightArm  -29.7226 22.7852 13.9909
RightForeArm  -6.05871 73.4103 46.2869
RightHand  -0.397461 3.06972 -5.67245
LeftUpLeg  -17.6554 7.76373 -0.78696
LeftLeg  46.7135 4.54927 5.5684
LeftFoot  -11.5279 0.0660685 -1.59641
LeftToes  1.68253e-010 -3.2327e-011 -2.69673e-012
661
root  33.737 38.5896 2.81052 2.00354 8.19974 3.97028
RightUpLeg  -21.1287 -23.5611 -0.675873
RightLeg  20.3229 -6.96449 -0.580985
RightFoot  -4.18112 0.324032 -5.62314
RightToes  5.82063e-011 0 -3.6325e-017
Spine  23.7487 -1.38847 1.00368
Spine1  4.58743 -2.87369 6.64876
HEad  -37.4788 -1.82135 -9.77546
LeftShoulder1  1.69187 -2.45036 -22.0777
LeftArm  -10.6745 -38.433 -48.0638
LeftForeArm  4.06391 -64.6062 -24.482
LeftHand  -0.0470053 6.04644 -0.516778
RightShoulder  0.420826 -1.67879 16.6308
RightArm  -29.9274 21.8021 14.3249
RightForeArm  -3.44108 73.836 47.8027
RightHand  -0.271978 2.88705 -4.04235
LeftUpLeg  -16.1843 12.0551 -2.02822
LeftLeg  48.785 5.46822 7.0799
LeftFoot  -11.2198 0.0687421 -1.22099
LeftToes  1.68253e-010 -3.2327e-011 -2.69673e-012
662
root  32.4366 38.5297 2.53631 2.37268 14.0764 3.81653
RightUpLeg  -21.2953 -24.4937 0.451865
RightLeg  20.2992 -11.7902 -1.30759
RightFoot  -4.60904 0.389841 -7.14047
RightToes  5.82063e-011 0 -3.6325e-017
Spine  23.0962 -1.31986 0.819008
Spine1  4.88633 -2.92781 6.97089
HEad  -37.4047 -1.36497 -10.936
LeftShoulder1  1.70021 -2.56299 -21.6718
LeftArm  -10.3689 -38.8533 -48.504
LeftForeArm  4.33259 -64.5342 -24.3579
LeftHand  -0.0478522 6.10075 -1.68354
RightShoulder  0.367085 -1.95498 17.3731
RightArm  -30.1513 21.2975 13.834
RightForeArm  -1.67854 74.2277 49.4654
RightHand  -0.279048 2.64238 -4.23262
LeftUpLeg  -14.2889 16.3542 -2.50117
LeftLeg  50.628 5.74039 7.89174
LeftFoot  -11.1174 0.0692568 -1.85013
LeftToes  1.68253e-010 -3.2327e-011 -2.69673e-012
663
root  31.1591 38.451 2.28192 2.35828 20.0538 3.66995
RightUpLeg  -21.1364 -25.1027 1.22887
RightLeg  20.1842 -17.0972 -1.97317
RightFoot  -4.97934 0.45238 -8.72121
RightToes  5.82063e-011 0 -3.6325e-017
Spine  23.029 -1.24564 0.437323
Spine1  4.8203 -3.06142 7.63188
HEad  -37.2703 -1.37441 -11.5702
LeftShoulder1  1.74053 -2.76034 -21.4188
LeftArm  -10.1651 -39.2159 -48.5914
LeftForeArm  3.89747 -64.4802 -24.3408
LeftHand  -0.045811 5.97234 -1.26193
RightShoulder  0.374034 -1.93396 17.5248
RightArm  -30.4495 20.1174 13.9165
RightForeArm  0.24855 74.8266 52.4329
RightHand  -0.397763 2.83598 -5.86085
LeftUpLeg  -11.6318 20.6786 -1.9852
LeftLeg  52.14 5.68613 8.255
LeftFoot  -10.4902 0.0707149 -0.97296
LeftToes  1.68253e-010 -3.2327e-011 -2.69673e-012
664
root  29.9127 38.3379 2.06967 2.52014 26.1322 3.67642
RightUpLeg  -21.5458 -26.7009 2.09388
RightLeg  20.3509 -21.5419 -2.6042
RightFoot  -5.46622 0.478849 -10.0137
RightToes  5.82063e-011 0 -3.6325e-017
Spine  22.5759 -1.2071 -0.202293
Spine1  5.1131 -3.39857 8.65905
HEad  -36.6558 -0.0386959 -11.7512
LeftShoulder1  1.71389 -2.53741 -22.0324
LeftArm  -9.67399 -40.0581 -48.7938
LeftForeArm  4.2723 -64.4585 -24.2694
LeftHand  -0.0440986 5.97492 -2.09753
RightShoulder  0.399306 -1.8019 17.0787
RightArm  -31.2463 19.076 14.1928
RightForeArm  2.66061 75.1833 54.2567
RightHand  -0.377529 3.82068 -5.00792
LeftUpLeg  -8.76787 24.3411 -0.871701
LeftLeg  53.1558 6.04336 9.05816
LeftFoot  -10.2984 0.0730596 -1.25103
LeftToes  1.68253e-010 -3.2327e-011 -2.69673e-012
665
root  28.6831 38.1981 1.8622 2.65332 31.9789 3.93317
RightUpLeg  -22.1662 -28.472 2.80227
RightLeg  20.7146 -25.4301 -3.37857
RightFoot  -5.95939 0.478235 -10.9792
RightToes  5.82063e-011 0 -3.6325e-017
Spine  22.6134 -1.07142 -0.855969
Spine1  4.94339 -3.50953 9.24035
HEad  -36.4333 -0.140465 -12.1507
LeftShoulder1  1.74603 -2.68282 -21.8783
LeftArm  -9.54153 -40.3935 -49.5133
LeftForeArm  4.19406 -64.3129 -24.0954
LeftHand  -0.0438911 5.91218 -1.56906
RightShoulder  0.400581 -1.78216 16.868
RightArm  -31.674 17.9476 14.4284
RightForeArm  5.40375 75.6928 57.3412
RightHand  -0.396371 3.7567 -5.28211
LeftUpLeg  -5.55969 27.4352 0.76978
LeftLeg  53.6458 6.75045 10.2136
LeftFoot  -9.95984 0.0743427 -1.17711
LeftToes  1.68253e-010 -3.2327e-011 -2.69673e-012
